:version 1.10
:name ASF
:units
  mass 1
  length 1
  angle deg
:documentation
  ASF file generated by Kaydara
:root
  axis xyz
  order  tx ty tz rx ry rz
  position 0 0 0
  orientation 0 0 0
:bonedata
  begin
    id 1
    name RightUpLegDummy
    direction -1 2.30186e-007 8.31532e-007
    length 4.04083
    axis 0 0 0 xyz
  end
  begin
    id 2
    name RightUpLeg
    direction -0.000919234 -0.999985 0.00544864
    length 17.4221
    axis -3.80308 -0.00076134 -0.0523649 xyz
    dof rx ry rz
  end
  begin
    id 3
    name RightLeg
    direction -0.000919271 -0.999984 -0.00555045
    length 17.1239
    axis 4.00314 0.0181274 -0.183583 xyz
    dof rx ry rz
  end
  begin
    id 4
    name RightFoot
    direction -2.57843e-005 -4.04509e-007 1
    length 6.72091
    axis 8.18909e-005 -0.122003 -0.403008 xyz
    dof rx ry rz
  end
  begin
    id 5
    name RightToes
    direction 0.00116825 -0.014069 0.9999
    length 3.85082
    axis 0.000514414 0.540638 -0.356797 xyz
    dof rx ry rz
  end
  begin
    id 6
    name SpineDummy
    direction 0.0168869 0.966876 -0.254689
    length 6.99894
    axis 0 0 0 xyz
  end
  begin
    id 7
    name Spine
    direction -0.0132008 0.999903 0.00446247
    length 11.1999
    axis -0.00148109 0.00725429 0.756411 xyz
    dof rx ry rz
  end
  begin
    id 8
    name Spine1
    direction 0 0 0
    length 0
    axis -0.000934958 0.0245693 1.46543 xyz
    dof rx ry rz
  end
  begin
    id 9
    name HEadDummy
    direction -0.0255732 0.999672 0.00128215
    length 3.43865
    axis -0.000934958 0.0245693 1.46543 xyz
  end
  begin
    id 10
    name HEad
    direction -0.0472656 0.980052 0.19304
    length 5.12695
    axis -0.000934954 0.0245693 1.46543 xyz
    dof rx ry rz
  end
  begin
    id 11
    name LeftShoulder1Dummy
    direction 0.953098 0.301717 -0.023914
    length 3.68488
    axis -0.000934958 0.0245693 1.46543 xyz
  end
  begin
    id 12
    name LeftShoulder1
    direction 0.962466 0.271167 0.0112566
    length 3.13809
    axis -0.000934958 0.0245693 1.46543 xyz
    dof rx ry rz
  end
  begin
    id 13
    name LeftArm
    direction 0.999943 0.00455037 -0.00961766
    length 11.3419
    axis -23.1648 0.685459 1.22814 xyz
    dof rx ry rz
  end
  begin
    id 14
    name LeftForeArm
    direction 0.999332 0.0131969 0.0340885
    length 8.70632
    axis -9.90633 0.618216 0.0826942 xyz
    dof rx ry rz
  end
  begin
    id 15
    name LeftHand
    direction 0.994373 -0.0366703 0.0993905
    length 5.32135
    axis 0.00675269 0.680415 0.445699 xyz
    dof rx ry rz
  end
  begin
    id 16
    name RightShoulderDummy
    direction -0.967298 0.252589 -0.0230903
    length 3.68488
    axis -0.000934958 0.0245693 1.46543 xyz
  end
  begin
    id 17
    name RightShoulder
    direction -0.975062 0.221602 0.0120823
    length 3.13809
    axis 0.216257 0.0246515 1.45863 xyz
    dof rx ry rz
  end
  begin
    id 18
    name RightArm
    direction -0.99886 -0.00851186 -0.0469687
    length 10.3947
    axis -23.196 0.23503 -0.532632 xyz
    dof rx ry rz
  end
  begin
    id 19
    name RightForeArm
    direction -0.99909 0.00114866 0.0426317
    length 8.68355
    axis -9.91764 -0.134943 0.610517 xyz
    dof rx ry rz
  end
  begin
    id 20
    name RightHand
    direction -0.992888 -0.0489538 0.10852
    length 5.28593
    axis -0.00275396 -0.197403 0.246414 xyz
    dof rx ry rz
  end
  begin
    id 21
    name LeftUpLegDummy
    direction 1 -2.30186e-007 -8.31532e-007
    length 4.04083
    axis 0 0 0 xyz
  end
  begin
    id 22
    name LeftUpLeg
    direction -0.000920097 -1 2.79241e-006
    length 17.4221
    axis -3.48782 0.00143434 -0.0532288 xyz
    dof rx ry rz
  end
  begin
    id 23
    name LeftLeg
    direction -0.000920097 -1 2.7912e-006
    length 17.1239
    axis 3.68162 -0.00806512 -0.0529896 xyz
    dof rx ry rz
  end
  begin
    id 24
    name LeftFoot
    direction -2.57845e-005 -3.987e-007 1
    length 6.72091
    axis 3.02372e-005 -0.00147829 -0.214229 xyz
    dof rx ry rz
  end
  begin
    id 25
    name LeftToes
    direction 0.00813577 -0.00488255 0.999955
    length 3.85048
    axis 3.89895e-005 -0.0014783 -0.214229 xyz
    dof rx ry rz
  end
:hierarchy
  begin
    root RightUpLegDummy SpineDummy LeftUpLegDummy
    RightUpLegDummy RightUpLeg
    RightUpLeg RightLeg
    RightLeg RightFoot
    RightFoot RightToes
    SpineDummy Spine
    Spine Spine1
    Spine1 HEadDummy LeftShoulder1Dummy RightShoulderDummy
    HEadDummy HEad
    LeftShoulder1Dummy LeftShoulder1
    LeftShoulder1 LeftArm
    LeftArm LeftForeArm
    LeftForeArm LeftHand
    RightShoulderDummy RightShoulder
    RightShoulder RightArm
    RightArm RightForeArm
    RightForeArm RightHand
    LeftUpLegDummy LeftUpLeg
    LeftUpLeg LeftLeg
    LeftLeg LeftFoot
    LeftFoot LeftToes
  end

:SAMPLES-PER-SECOND 30
:FULLY-SPECIFIED
:DEGREES
1
root  -17.6937 34.5703 -15.13 -170.536 -0.766891 179.185
RightUpLeg  -6.62413 -17.4089 -2.80891
RightLeg  4.37729 -1.76153 -0.0203088
RightFoot  4.27997 0.0268308 0.0206768
RightToes  -25.7765 -0.120729 -0.224764
Spine  -2.47932 -0.0852428 -0.214144
Spine1  -5.0215 -0.125756 0.15971
HEad  -61.5304 1.14324 6.73037
LeftShoulder1  -1.94126e-019 -3.10601e-018 -2.51263e-017
LeftArm  -15.5802 27.7533 -80.5376
LeftForeArm  31.1494 -19.086 -2.99558
LeftHand  -0.48748 -1.45945 8.53389
RightShoulder  -4.96962e-017 0 -2.36833e-017
RightArm  -29.6511 -25.7072 75.2005
RightForeArm  53.2266 16.6025 1.10946
RightHand  -0.28245 -2.95189 -13.2248
LeftUpLeg  -6.57818 1.2591 2.41538
LeftLeg  4.6242 12.0496 0.19611
LeftFoot  4.7144 -0.040374 1.11955
LeftToes  -22.0135 1.7763e-006 6.54387e-008
2
root  -17.6975 34.5703 -15.13 -170.536 -0.77066 179.178
RightUpLeg  -6.62518 -17.3623 -2.82425
RightLeg  4.37716 -1.79163 -0.0206413
RightFoot  4.2678 0.0268308 0.0206768
RightToes  -25.7351 -0.120729 -0.224764
Spine  -2.50902 -0.0727973 -0.194457
Spine1  -5.08188 -0.0962257 0.198709
HEad  -61.931 0.154639 6.45362
LeftShoulder1  -1.94126e-019 -3.10601e-018 -2.51263e-017
LeftArm  -15.5415 27.6699 -80.4564
LeftForeArm  31.39 -19.2835 -3.02494
LeftHand  -0.491165 -1.53063 8.40765
RightShoulder  -4.96962e-017 0 -2.36833e-017
RightArm  -29.6026 -25.615 75.1907
RightForeArm  53.1923 16.6479 1.11245
RightHand  -0.284335 -2.88163 -13.1748
LeftUpLeg  -6.5534 1.28293 2.40459
LeftLeg  4.57416 12.003 0.184958
LeftFoot  4.70739 -0.040374 1.11955
LeftToes  -21.9901 1.7763e-006 6.54387e-008
3
root  -17.7013 34.5703 -15.1317 -170.53 -0.757416 179.167
RightUpLeg  -6.62664 -17.2967 -2.83756
RightLeg  4.38108 -1.87496 -0.0217688
RightFoot  4.24117 0.0268308 0.0206768
RightToes  -25.6333 -0.120729 -0.224764
Spine  -2.5323 -0.0680162 -0.172611
Spine1  -5.12906 -0.0827911 0.243003
HEad  -62.3458 -1.05447 5.72616
LeftShoulder1  -1.94126e-019 -3.10601e-018 -2.51263e-017
LeftArm  -15.4795 27.6349 -80.4074
LeftForeArm  31.3255 -19.4934 -3.05724
LeftHand  -0.496819 -1.4928 8.54634
RightShoulder  -4.96962e-017 0 -2.36833e-017
RightArm  -29.461 -25.518 75.202
RightForeArm  53.2623 16.6254 1.10919
RightHand  -0.284186 -2.95733 -13.182
LeftUpLeg  -6.53688 1.29538 2.38578
LeftLeg  4.53776 12.0097 0.177489
LeftFoot  4.7323 -0.040374 1.11955
LeftToes  -22.0286 1.7763e-006 6.54387e-008
4
root  -17.7032 34.5703 -15.1359 -170.516 -0.743118 179.158
RightUpLeg  -6.62703 -17.28 -2.84808
RightLeg  4.35821 -1.88363 -0.0211245
RightFoot  4.2525 0.0268308 0.0206768
RightToes  -25.6708 -0.120729 -0.224764
Spine  -2.54671 -0.0761576 -0.15215
Spine1  -5.158 -0.0966293 0.284387
HEad  -62.6992 -1.8707 5.12659
LeftShoulder1  -1.94126e-019 -3.10601e-018 -2.51263e-017
LeftArm  -15.3808 27.6562 -80.352
LeftForeArm  31.3734 -19.6392 -3.07712
LeftHand  -0.485785 -1.50941 8.34133
RightShoulder  -4.96962e-017 0 -2.36833e-017
RightArm  -29.3735 -25.4357 75.2132
RightForeArm  53.3473 16.563 1.10417
RightHand  -0.286668 -2.93202 -13.1188
LeftUpLeg  -6.53472 1.30663 2.37403
LeftLeg  4.52454 12.0069 0.174699
LeftFoot  4.72917 -0.040374 1.11955
LeftToes  -21.9888 1.7763e-006 6.54387e-008
5
root  -17.7052 34.5703 -15.1477 -170.489 -0.706573 179.144
RightUpLeg  -6.62788 -17.2426 -2.86516
RightLeg  4.32834 -1.88591 -0.0211868
RightFoot  4.24737 0.0268308 0.0206768
RightToes  -25.6577 -0.120729 -0.224764
Spine  -2.57722 -0.0966049 -0.111275
Spine1  -5.2188 -0.134401 0.368147
HEad  -63.1948 -2.82451 4.09981
LeftShoulder1  -1.94126e-019 -3.10601e-018 -2.51263e-017
LeftArm  -15.1355 27.7307 -80.365
LeftForeArm  31.3366 -19.5656 -3.07442
LeftHand  -0.513244 -1.63688 8.65336
RightShoulder  -4.96962e-017 0 -2.36833e-017
RightArm  -29.1128 -25.3579 75.251
RightForeArm  53.4516 16.413 1.09782
RightHand  -0.282459 -2.98434 -13.1938
LeftUpLeg  -6.54013 1.34008 2.35168
LeftLeg  4.52901 12.017 0.175774
LeftFoot  4.72184 -0.040374 1.11955
LeftToes  -21.9795 1.7763e-006 6.54387e-008
6
root  -17.7051 34.5703 -15.1605 -170.471 -0.680069 179.135
RightUpLeg  -6.62839 -17.2198 -2.87628
RightLeg  4.32992 -1.88125 -0.0221321
RightFoot  4.23805 0.0268308 0.0206768
RightToes  -25.6299 -0.120729 -0.224764
Spine  -2.59739 -0.125043 -0.0787242
Spine1  -5.25888 -0.189854 0.435851
HEad  -63.6186 -3.0982 3.44372
LeftShoulder1  -1.94126e-019 -3.10601e-018 -2.51263e-017
LeftArm  -14.9262 27.828 -80.4198
LeftForeArm  31.2526 -19.4581 -3.0619
LeftHand  -0.507999 -1.64351 8.55916
RightShoulder  -4.96962e-017 0 -2.36833e-017
RightArm  -28.8014 -25.4075 75.3071
RightForeArm  53.5126 16.3976 1.0958
RightHand  -0.280936 -2.99269 -13.164
LeftUpLeg  -6.54591 1.34086 2.33705
LeftLeg  4.55775 12.0525 0.182288
LeftFoot  4.69772 -0.040374 1.11955
LeftToes  -21.8969 1.7763e-006 6.54387e-008
7
root  -17.7043 34.5703 -15.1689 -170.465 -0.656143 179.135
RightUpLeg  -6.6348 -17.2136 -2.87478
RightLeg  4.34819 -1.87653 -0.0230411
RightFoot  4.23336 0.0268308 0.0206768
RightToes  -25.6903 -0.120729 -0.224764
Spine  -2.60808 -0.143183 -0.0633758
Spine1  -5.27992 -0.226344 0.469252
HEad  -63.9093 -3.11004 3.25246
LeftShoulder1  -1.94126e-019 -3.10601e-018 -2.51263e-017
LeftArm  -14.8876 27.8533 -80.5138
LeftForeArm  31.2126 -19.1952 -3.0301
LeftHand  -0.520291 -1.60796 8.80379
RightShoulder  -4.96962e-017 0 -2.36833e-017
RightArm  -28.6456 -25.5034 75.384
RightForeArm  53.4344 16.426 1.09851
RightHand  -0.274501 -3.03759 -13.0886
LeftUpLeg  -6.54497 1.3345 2.33776
LeftLeg  4.58034 12.078 0.187392
LeftFoot  4.69014 -0.040374 1.11955
LeftToes  -21.9387 1.7763e-006 6.54387e-008
8
root  -17.7034 34.5675 -15.1835 -170.459 -0.596207 179.138
RightUpLeg  -6.65899 -17.1892 -2.87641
RightLeg  4.41122 -1.84348 -0.0278192
RightFoot  4.18195 0.0268308 0.0206768
RightToes  -25.6385 -0.120729 -0.224764
Spine  -2.62405 -0.152887 -0.057794
Spine1  -5.31113 -0.249438 0.483982
HEad  -64.3045 -3.06883 3.08785
LeftShoulder1  -1.94126e-019 -3.10601e-018 -2.51263e-017
LeftArm  -15.0128 27.8906 -80.6284
LeftForeArm  31.291 -18.8402 -2.98214
LeftHand  -0.513623 -1.52015 8.79693
RightShoulder  -4.96962e-017 0 -2.36833e-017
RightArm  -28.4784 -25.7635 75.5514
RightForeArm  53.306 16.4467 1.10282
RightHand  -0.270738 -3.08719 -13.174
LeftUpLeg  -6.54711 1.36248 2.33605
LeftLeg  4.64248 12.1196 0.201072
LeftFoot  4.64777 -0.0399961 1.11368
LeftToes  -21.8578 1.7763e-006 6.54387e-008
9
root  -17.6997 34.5638 -15.1963 -170.459 -0.521576 179.142
RightUpLeg  -6.6844 -17.1315 -2.87542
RightLeg  4.47998 -1.84324 -0.0281017
RightFoot  4.12697 0.0268308 0.0206768
RightToes  -25.5806 -0.120729 -0.224764
Spine  -2.65034 -0.153028 -0.0619502
Spine1  -5.36318 -0.253722 0.477642
HEad  -64.3955 -2.9378 3.08659
LeftShoulder1  -1.94126e-019 -3.10601e-018 -2.51263e-017
LeftArm  -15.152 27.9605 -80.6881
LeftForeArm  31.3848 -18.5187 -2.9326
LeftHand  -0.517577 -1.64464 8.71591
RightShoulder  -4.96962e-017 0 -2.36833e-017
RightArm  -28.3176 -25.9895 75.6451
RightForeArm  53.2734 16.3935 1.1032
RightHand  -0.271992 -3.06096 -13.1388
LeftUpLeg  -6.55042 1.40502 2.34059
LeftLeg  4.71509 12.1501 0.216849
LeftFoot  4.59287 -0.0393694 1.10394
LeftToes  -21.8191 1.7763e-006 6.54387e-008
10
root  -17.6942 34.5599 -15.2112 -170.461 -0.446243 179.153
RightUpLeg  -6.70924 -17.0515 -2.8678
RightLeg  4.56238 -1.83996 -0.0288327
RightFoot  4.07477 0.0268029 0.0210758
RightToes  -25.6219 -0.120729 -0.224764
Spine  -2.68457 -0.142871 -0.0675836
Spine1  -5.43115 -0.238078 0.466763
HEad  -64.3885 -2.85079 3.2561
LeftShoulder1  -1.94126e-019 -3.10601e-018 -2.51263e-017
LeftArm  -15.1901 28.0661 -80.7666
LeftForeArm  31.3205 -18.2989 -2.89593
LeftHand  -0.515634 -1.5695 8.77185
RightShoulder  -4.96962e-017 0 -2.36833e-017
RightArm  -28.1316 -26.2376 75.6936
RightForeArm  53.3275 16.329 1.10124
RightHand  -0.273039 -3.07436 -13.1176
LeftUpLeg  -6.55254 1.46043 2.35322
LeftLeg  4.80339 12.1628 0.23567
LeftFoot  4.51922 -0.0383646 1.08832
LeftToes  -21.7583 1.7763e-006 6.54387e-008
11
root  -17.6868 34.5562 -15.224 -170.465 -0.392212 179.162
RightUpLeg  -6.72202 -17.0005 -2.85532
RightLeg  4.62088 -1.84096 -0.0290348
RightFoot  4.04667 0.0267576 0.0217236
RightToes  -25.6666 -0.120729 -0.224764
Spine  -2.71228 -0.132524 -0.0781692
Spine1  -5.48596 -0.222347 0.4451
HEad  -64.359 -2.8782 3.43517
LeftShoulder1  -1.94126e-019 -3.10601e-018 -2.51263e-017
LeftArm  -15.1443 28.168 -80.7889
LeftForeArm  31.2833 -18.2399 -2.88332
LeftHand  -0.508131 -1.57409 8.64136
RightShoulder  -4.96962e-017 0 -2.36833e-017
RightArm  -28.0496 -26.4195 75.7119
RightForeArm  53.4128 16.2107 1.0995
RightHand  -0.272535 -3.03923 -13.1356
LeftUpLeg  -6.55161 1.46399 2.37062
LeftLeg  4.87171 12.2113 0.251045
LeftFoot  4.48564 -0.0380999 1.08421
LeftToes  -21.793 1.7763e-006 6.54387e-008
12
root  -17.6789 34.5546 -15.2345 -170.477 -0.359436 179.169
RightUpLeg  -6.73086 -16.9465 -2.84508
RightLeg  4.69283 -1.85928 -0.0266646
RightFoot  3.97759 0.0267006 0.0225374
RightToes  -25.5406 -0.120729 -0.224764
Spine  -2.73268 -0.133448 -0.0917561
Spine1  -5.52626 -0.220505 0.418428
HEad  -64.3025 -2.96926 3.58743
LeftShoulder1  -1.94126e-019 -3.10601e-018 -2.51263e-017
LeftArm  -15.1604 28.2285 -80.8018
LeftForeArm  31.3445 -18.1744 -2.86964
LeftHand  -0.514572 -1.62303 8.6914
RightShoulder  -4.96962e-017 0 -2.36833e-017
RightArm  -28.0353 -26.5318 75.7073
RightForeArm  53.4659 16.1083 1.10004
RightHand  -0.275306 -3.14607 -13.0801
LeftUpLeg  -6.53372 1.43529 2.38757
LeftLeg  4.90729 12.2759 0.259921
LeftFoot  4.45403 -0.0378855 1.08087
LeftToes  -21.731 1.7763e-006 6.54387e-008
13
root  -17.6706 34.5529 -15.2432 -170.498 -0.336227 179.181
RightUpLeg  -6.72597 -16.9153 -2.83609
RightLeg  4.75049 -1.85334 -0.0276783
RightFoot  3.95025 0.0266379 0.023434
RightToes  -25.5765 -0.120729 -0.224764
Spine  -2.75421 -0.133597 -0.108027
Spine1  -5.56903 -0.224825 0.385183
HEad  -64.2163 -3.10727 3.70418
LeftShoulder1  -1.94126e-019 -3.10601e-018 -2.51263e-017
LeftArm  -15.1169 28.2984 -80.7694
LeftForeArm  31.3615 -18.2194 -2.87174
LeftHand  -0.509904 -1.56963 8.67612
RightShoulder  -4.96962e-017 0 -2.36833e-017
RightArm  -28.1301 -26.6134 75.665
RightForeArm  53.4888 16.0007 1.10277
RightHand  -0.275172 -3.10977 -13.0854
LeftUpLeg  -6.50552 1.43552 2.4113
LeftLeg  4.93408 12.304 0.266216
LeftFoot  4.44855 -0.0377112 1.07816
LeftToes  -21.7855 1.7763e-006 6.54387e-008
14
root  -17.6606 34.5522 -15.2518 -170.525 -0.324219 179.196
RightUpLeg  -6.69332 -16.9415 -2.81517
RightLeg  4.75507 -1.82222 -0.0329834
RightFoot  3.94433 0.0265751 0.0243307
RightToes  -25.6496 -0.120729 -0.224764
Spine  -2.77226 -0.133349 -0.131225
Spine1  -5.60507 -0.230762 0.336396
HEad  -64.105 -3.30778 3.85786
LeftShoulder1  -1.94126e-019 -3.10601e-018 -2.51263e-017
LeftArm  -14.8826 28.3769 -80.6676
LeftForeArm  31.2962 -18.4036 -2.89775
LeftHand  -0.505958 -1.56559 8.61502
RightShoulder  -4.96962e-017 0 -2.36833e-017
RightArm  -28.2325 -26.6817 75.6317
RightForeArm  53.5465 15.9434 1.10347
RightHand  -0.273624 -3.127 -13.1226
LeftUpLeg  -6.4746 1.47054 2.44346
LeftLeg  4.95194 12.2795 0.269491
LeftFoot  4.43936 -0.0376664 1.07747
LeftToes  -21.8337 1.7763e-006 6.54387e-008
15
root  -17.6551 34.5544 -15.2545 -170.533 -0.32164 179.199
RightUpLeg  -6.67171 -16.9143 -2.80533
RightLeg  4.74722 -1.84286 -0.0331155
RightFoot  3.93634 0.0265182 0.0251444
RightToes  -25.5491 -0.120729 -0.224764
Spine  -2.77997 -0.132644 -0.144145
Spine1  -5.62015 -0.233773 0.311548
HEad  -64.0626 -3.43686 3.97188
LeftShoulder1  -1.94126e-019 -3.10601e-018 -2.51263e-017
LeftArm  -14.8808 28.327 -80.6291
LeftForeArm  31.2607 -18.3129 -2.89007
LeftHand  -0.413992 -1.06622 7.58486
RightShoulder  -4.96962e-017 0 -2.36833e-017
RightArm  -28.2023 -26.6741 75.5605
RightForeArm  53.5768 15.9013 1.10452
RightHand  -0.272415 -3.11044 -13.1393
LeftUpLeg  -6.44531 1.45206 2.45363
LeftLeg  4.92071 12.3032 0.263351
LeftFoot  4.44754 -0.0379106 1.08126
LeftToes  -21.8106 1.7763e-006 6.54387e-008
